<svg width="44" height="44" viewBox="0 0 44 44" fill="none" xmlns="http://www.w3.org/2000/svg">
<path d="M21.6564 0.145519C16.0424 0.139757 10.6469 2.29735 6.61437 6.16067C11.0792 12.9983 18.7384 15.578 22.2736 16.9547C22.6855 17.1159 23.041 17.3924 23.2964 17.7503C23.5519 18.1083 23.6963 18.5321 23.712 18.97L23.8204 21.9967C23.8204 21.9967 11.2755 19.7567 4.94102 7.94861C4.87646 8.02524 4.81707 8.10442 4.75509 8.18104C7.07919 12.9216 10.0489 17.1208 13.677 19.4425C24.3963 26.3389 29.907 26.6811 31.4745 27.2737L31.5519 27.3018C31.9836 27.4707 32.3559 27.7605 32.6234 28.1357C32.8908 28.511 33.0417 28.9553 33.0574 29.4141L33.1168 31.0974C33.1922 31.5643 33.2095 32.0387 33.1685 32.5098V32.5839C33.1685 32.5967 33.1685 32.6171 33.1685 32.6171C31.0622 32.35 28.9799 31.9231 26.9399 31.34C19.4821 29.2788 10.7616 26.8701 2.45424 11.688C2.40001 11.7927 2.3432 11.9 2.29155 12.0047C3.17194 14.3987 4.34714 16.6763 5.79061 18.7861C6.44135 19.7286 6.99397 20.574 7.68345 21.5038C12.0243 27.2839 16.6338 29.5546 20.1768 31.3094C20.8714 31.6516 21.5067 31.9556 22.0386 32.2186C22.4386 32.4157 22.7736 32.7213 23.0044 33.0998C23.2555 33.5043 23.377 33.9744 23.353 34.4485L23.1852 37.6131C22.2952 37.3502 21.4231 37.0311 20.5744 36.6578C18.3847 35.8162 16.3042 34.7196 14.3769 33.391C9.71316 30.2008 4.17665 24.5714 1.4652 14.965C1.4652 14.965 1.4652 14.9497 1.4652 14.942C1.40323 14.7377 1.33609 14.541 1.27669 14.3341C-0.280153 18.6181 -0.416751 23.2813 0.886711 27.6473C2.19017 32.0133 4.86591 35.855 8.52584 38.6153C12.1858 41.3756 16.6395 42.9109 21.2412 42.9985C25.8428 43.0861 30.353 41.7215 34.1176 39.1026C37.8822 36.4836 40.7055 32.7466 42.1778 28.4335C43.6502 24.1203 43.6951 19.4554 42.3061 15.1153C40.9171 10.7752 38.1664 6.98562 34.4529 4.29621C30.7395 1.6068 26.2563 0.157419 21.6539 0.15829L21.6564 0.145519Z" fill="white"/>
</svg>
