<svg width="20" height="20" viewBox="0 0 20 20" fill="none" xmlns="http://www.w3.org/2000/svg">
<path d="M6 8.875C6.25 8.875 6.45833 8.79167 6.625 8.625C6.79167 8.45833 6.875 8.25 6.875 8C6.875 7.75 6.79167 7.54167 6.625 7.375C6.45833 7.20833 6.25 7.125 6 7.125C5.75 7.125 5.54167 7.20833 5.375 7.375C5.20833 7.54167 5.125 7.75 5.125 8C5.125 8.25 5.20833 8.45833 5.375 8.625C5.54167 8.79167 5.75 8.875 6 8.875ZM10 8.875C10.25 8.875 10.4583 8.79167 10.625 8.625C10.7917 8.45833 10.875 8.25 10.875 8C10.875 7.75 10.7917 7.54167 10.625 7.375C10.4583 7.20833 10.25 7.125 10 7.125C9.75 7.125 9.54167 7.20833 9.375 7.375C9.20833 7.54167 9.125 7.75 9.125 8C9.125 8.25 9.20833 8.45833 9.375 8.625C9.54167 8.79167 9.75 8.875 10 8.875ZM14 8.875C14.25 8.875 14.4583 8.79167 14.625 8.625C14.7917 8.45833 14.875 8.25 14.875 8C14.875 7.75 14.7917 7.54167 14.625 7.375C14.4583 7.20833 14.25 7.125 14 7.125C13.75 7.125 13.5417 7.20833 13.375 7.375C13.2083 7.54167 13.125 7.75 13.125 8C13.125 8.25 13.2083 8.45833 13.375 8.625C13.5417 8.79167 13.75 8.875 14 8.875ZM0.5 19.05V2.3C0.5 1.8 0.675 1.375 1.025 1.025C1.375 0.675 1.8 0.5 2.3 0.5H17.7C18.2 0.5 18.625 0.675 18.975 1.025C19.325 1.375 19.5 1.8 19.5 2.3V13.7C19.5 14.2 19.325 14.625 18.975 14.975C18.625 15.325 18.2 15.5 17.7 15.5H4.05L0.5 19.05ZM2 15.425L3.425 14H17.7C17.7833 14 17.8543 13.9707 17.913 13.912C17.971 13.854 18 13.7833 18 13.7V2.3C18 2.21667 17.971 2.14567 17.913 2.087C17.8543 2.029 17.7833 2 17.7 2H2.3C2.21667 2 2.146 2.029 2.088 2.087C2.02933 2.14567 2 2.21667 2 2.3V15.425ZM2 2.3V2V15.425V2.3Z" fill="#00333F"/>
</svg>
