<svg width="24" height="30" viewBox="0 0 24 30" fill="none" xmlns="http://www.w3.org/2000/svg">
<path d="M0.666626 24.9168V22.0835H3.49996V12.1668C3.49996 10.2071 4.09024 8.46555 5.27079 6.94216C6.45135 5.41972 7.98607 4.42238 9.87496 3.95016V2.9585C9.87496 2.36822 10.0818 1.86672 10.4955 1.454C10.9082 1.04033 11.4097 0.833496 12 0.833496C12.5902 0.833496 13.0917 1.04033 13.5045 1.454C13.9181 1.86672 14.125 2.36822 14.125 2.9585V3.95016C16.0138 4.42238 17.5486 5.41972 18.7291 6.94216C19.9097 8.46555 20.5 10.2071 20.5 12.1668V22.0835H23.3333V24.9168H0.666626ZM12 29.1668C11.2208 29.1668 10.554 28.8896 9.99963 28.3352C9.44429 27.7799 9.16663 27.1127 9.16663 26.3335H14.8333C14.8333 27.1127 14.5561 27.7799 14.0017 28.3352C13.4464 28.8896 12.7791 29.1668 12 29.1668Z" fill="#C4C4C4"/>
</svg>
