<svg width="16" height="22" viewBox="0 0 16 22" fill="none" xmlns="http://www.w3.org/2000/svg">
<path d="M16 7.56928C16.0004 6.25741 15.6402 4.96797 14.9548 3.82749C14.2694 2.68701 13.2823 1.73467 12.0904 1.06391C10.8985 0.393153 9.54266 0.0270207 8.156 0.00143915C6.76934 -0.0241424 5.39948 0.291707 4.18081 0.917994C2.96214 1.54428 1.93654 2.45949 1.20464 3.57382C0.472736 4.68816 0.0596792 5.96333 0.00599612 7.27422C-0.047687 8.58511 0.259847 9.88668 0.898424 11.0512C1.537 12.2158 2.48468 13.2033 3.64848 13.9169V14.9099C3.64833 15.0531 3.67803 15.1949 3.73589 15.3272C3.79375 15.4596 3.87864 15.5798 3.98568 15.681C4.09273 15.7823 4.21984 15.8626 4.35973 15.9173C4.49962 15.972 4.64956 16.0001 4.80094 16H11.2014C11.3527 16 11.5025 15.9718 11.6423 15.917C11.782 15.8622 11.909 15.7819 12.0159 15.6806C12.1228 15.5794 12.2076 15.4592 12.2654 15.327C12.3232 15.1947 12.3529 15.053 12.3527 14.9099V13.9169C13.4725 13.2309 14.393 12.2907 15.0301 11.182C15.6671 10.0732 16.0006 8.83122 16 7.56928Z" fill="white"/>
<path d="M12.0297 17H3.97027C3.43441 17 3 17.4474 3 17.9994V18.0006C3 18.5526 3.43441 19 3.97027 19H12.0297C12.5656 19 13 18.5526 13 18.0006V17.9994C13 17.4474 12.5656 17 12.0297 17Z" fill="white"/>
<path d="M11.0406 20H4.95935C4.42952 20 4 20.4474 4 20.9994V21.0006C4 21.5526 4.42952 22 4.95935 22H11.0406C11.5705 22 12 21.5526 12 21.0006V20.9994C12 20.4474 11.5705 20 11.0406 20Z" fill="white"/>
<path d="M11 7.60581C11 7.10821 10.8633 6.62102 10.606 6.20183C10.3488 5.78264 9.98186 5.44897 9.54851 5.24028C9.11516 5.03158 8.63355 4.95657 8.16061 5.02413C7.68766 5.09168 7.24316 5.29897 6.87964 5.62149C6.51612 5.94401 6.24878 6.36827 6.10922 6.84414C5.96967 7.32 5.96372 7.82757 6.0921 8.30684C6.22048 8.78611 6.47781 9.21705 6.83367 9.54872C7.18953 9.88039 7.62905 10.0989 8.10027 10.1785V14.5833C8.10027 14.6938 8.14239 14.7998 8.21735 14.878C8.29231 14.9561 8.39399 15 8.5 15C8.60601 15 8.70769 14.9561 8.78265 14.878C8.85761 14.7998 8.89973 14.6938 8.89973 14.5833V10.1785C9.48587 10.0795 10.0191 9.7663 10.4039 9.29492C10.7887 8.82354 11 8.22477 11 7.60581ZM8.5 9.37847C8.16366 9.37847 7.83488 9.2745 7.55523 9.07972C7.27557 8.88494 7.05761 8.60809 6.9289 8.28418C6.80019 7.96027 6.76651 7.60385 6.83213 7.25998C6.89774 6.91612 7.05971 6.60027 7.29753 6.35236C7.53536 6.10445 7.83837 5.93562 8.16824 5.86722C8.49811 5.79882 8.84004 5.83393 9.15077 5.96809C9.46151 6.10226 9.7271 6.32947 9.91395 6.62098C10.1008 6.91249 10.2005 7.25521 10.2005 7.60581C10.1999 8.07575 10.0206 8.52627 9.7018 8.85857C9.38302 9.19087 8.95083 9.37784 8.5 9.37847Z" fill="#8520BD"/>
</svg>
