<svg width="22" height="21" viewBox="0 0 22 21" fill="none" xmlns="http://www.w3.org/2000/svg">
<path d="M16.4635 20.3542H5.50001V7.85425L12.4271 0.979248L13.3125 1.86466C13.4167 1.96883 13.5035 2.11189 13.5729 2.29383C13.6424 2.47647 13.6771 2.64591 13.6771 2.80216V3.06258L12.5833 7.85425H19.5625C20.0486 7.85425 20.4826 8.04522 20.8646 8.42716C21.2465 8.80911 21.4375 9.24314 21.4375 9.72925V11.422C21.4375 11.5261 21.4243 11.6431 21.3979 11.773C21.3722 11.9036 21.342 12.0209 21.3073 12.1251L18.3125 19.1563C18.1736 19.5036 17.9264 19.79 17.5708 20.0157C17.2146 20.2414 16.8455 20.3542 16.4635 20.3542ZM7.06251 18.7917H16.4635C16.533 18.7917 16.607 18.7702 16.6854 18.7272C16.7632 18.6834 16.8281 18.6181 16.8802 18.5313L19.875 11.5001V9.72925C19.875 9.64244 19.8448 9.56848 19.7844 9.50737C19.7233 9.44696 19.6493 9.41675 19.5625 9.41675H10.6042L11.9063 3.71362L7.06251 8.53133V18.7917ZM5.50001 7.85425V9.41675H2.16667V18.7917H5.50001V20.3542H0.604172V7.85425H5.50001Z" fill="#00333F"/>
</svg>
