<svg width="30" height="28" viewBox="0 0 30 28" fill="none" xmlns="http://www.w3.org/2000/svg">
<path d="M15.9025 2.21339L18.6703 8.01367C19.1076 8.93019 19.9789 9.56325 20.9857 9.69596L27.3574 10.5359C28.1913 10.6458 28.5252 11.6735 27.9152 12.2526L23.2541 16.6772C22.5176 17.3764 22.1848 18.4007 22.3697 19.3992L23.5398 25.7186C23.693 26.5457 22.8188 27.1808 22.0795 26.7796L16.431 23.7139C15.5385 23.2295 14.4615 23.2295 13.569 23.7139L7.92048 26.7796C7.18122 27.1808 6.30703 26.5457 6.46018 25.7186L7.63033 19.3992C7.81524 18.4007 7.48242 17.3764 6.7459 16.6772L2.08479 12.2526C1.47476 11.6735 1.80867 10.6458 2.64258 10.5359L9.01425 9.69596C10.0211 9.56325 10.8924 8.93019 11.3297 8.01367L14.0975 2.21339C14.4597 1.45427 15.5403 1.45427 15.9025 2.21339Z" stroke="#8520BD" stroke-width="2" stroke-linejoin="round"/>
</svg>
